<svg xmlns="http://www.w3.org/2000/svg" width="83.106" height="24" viewBox="0 0 83.106 24">
  <g id="Grupo_175" data-name="Grupo 175" transform="translate(0 -2.992)">
    <g id="Grupo_170" data-name="Grupo 170" transform="translate(0 2.992)">
      <g id="Grupo_35997" data-name="Grupo 35997">
        <path id="Trazado_351" data-name="Trazado 351" d="M49.851,36.972l-6.988,1.745V31.912L48.92,30.4a1.857,1.857,0,0,1,2.319,1.775V35.21a1.856,1.856,0,0,1-1.391,1.758" transform="translate(-29.332 -23.539)" fill="#dd3542"/>
        <path id="Trazado_352" data-name="Trazado 352" d="M24.541,64l-4.1,1.107a1.856,1.856,0,0,1-2.261-1.333,1.832,1.832,0,0,1-.059-.442V60.3A1.831,1.831,0,0,1,19.5,58.538l6.418-1.716v5.4A1.8,1.8,0,0,1,24.541,64" transform="translate(-12.402 -41.657)" fill="#dd3542"/>
        <path id="Trazado_353" data-name="Trazado 353" d="M13.532,21.768l-11.212,2.9A1.833,1.833,0,0,1,0,22.908V19.876a1.824,1.824,0,0,1,1.392-1.758l9.83-2.559a1.855,1.855,0,0,1,2.319,1.775Z" transform="translate(0 -13.38)" fill="#dd3542"/>
        <path id="Trazado_354" data-name="Trazado 354" d="M87.917,36.344a7.626,7.626,0,0,1,.942-4.423,13.655,13.655,0,0,0,5.353,1.316c2.484,0,3.755-.769,3.755-2.16,0-1.036-.554-1.745-3.531-2.973-4.279-1.805-6.359-3.061-6.359-6.421,0-3.772,3.366-6.332,8.424-6.332a19.774,19.774,0,0,1,5.745.931,5.973,5.973,0,0,1-.972,4.127A11.439,11.439,0,0,0,96.44,19.24c-2.154,0-3.262.813-3.262,2.026,0,1.168.823,1.805,3.1,2.677,4.773,1.8,6.823,3.417,6.823,6.583,0,4.127-3.126,6.747-9.038,6.747a17.833,17.833,0,0,1-6.148-.93" transform="translate(-60.141 -13.279)" fill="#dd3542"/>
        <path id="Trazado_355" data-name="Trazado 355" d="M158.442,32.33,158.414,46.7a15.968,15.968,0,0,1-8.1,2.071c-3.755,0-6.927-1.45-6.927-5.9V33.1a12.23,12.23,0,0,1,4.892-.769v9.779c0,1.716,1.137,2.589,3.126,2.589a9.223,9.223,0,0,0,2.1-.251V33.1a12.454,12.454,0,0,1,4.937-.769" transform="translate(-98.126 -24.889)" fill="#dd3542"/>
        <path id="Trazado_356" data-name="Trazado 356" d="M206.125,16.633v.681h4.892a6.785,6.785,0,0,1-1.571,3.846h-3.34V33.484h-4.925V21.144H198.7a5.428,5.428,0,0,1,2.484-4.156v-.847c0-3.551,1.93-5.814,6.463-5.814a27.9,27.9,0,0,1,4.564.414,5.445,5.445,0,0,1-1.077,3.847,19.473,19.473,0,0,0-2.708-.251,2.089,2.089,0,0,0-2.3,2.294" transform="translate(-135.972 -9.842)" fill="#dd3542"/>
        <path id="Trazado_357" data-name="Trazado 357" d="M247.237,11.416a2.529,2.529,0,1,1,2.517,2.486,2.5,2.5,0,0,1-2.514-2.475v-.011m.059,5.1a6.344,6.344,0,0,1,2.483-.459,6.2,6.2,0,0,1,2.455.459V32.527h-4.931Z" transform="translate(-169.189 -8.887)" fill="#dd3542"/>
      </g>
    </g>
  </g>
</svg>
