<svg xmlns="http://www.w3.org/2000/svg" width="263.652" height="76" viewBox="0 0 263.652 76">
  <g id="Grupo_258" data-name="Grupo 258" transform="translate(-81.958 -407.799)">
    <path id="Trazado_628" data-name="Trazado 628" d="M253.159,503.334l-22.169,5.539V487.281l19.226-4.788a5.886,5.886,0,0,1,7.358,5.633v9.622A5.885,5.885,0,0,1,253.159,503.334Z" transform="translate(-106.118 -53.055)" fill="#dd3542"/>
    <path id="Trazado_629" data-name="Trazado 629" d="M165.3,597.163l-13.007,3.52a5.887,5.887,0,0,1-7.358-5.633v-9.622a5.789,5.789,0,0,1,4.367-5.586l20.365-5.444V591.53A5.7,5.7,0,0,1,165.3,597.163Z" transform="translate(-44.843 -118.627)" fill="#dd3542"/>
    <path id="Trazado_630" data-name="Trazado 630" d="M124.871,450.532l-35.556,9.2a5.818,5.818,0,0,1-7.358-5.586v-9.622a5.779,5.779,0,0,1,4.415-5.586l31.188-8.12a5.886,5.886,0,0,1,7.358,5.632Z" transform="translate(0 -16.259)" fill="#dd3542"/>
    <path id="Trazado_631" data-name="Trazado 631" d="M387.916,496.738c-.095-6.853.712-9.81,2.991-14.035,4.747,2.159,11.061,4.177,16.995,4.177,7.88,0,11.915-2.441,11.915-6.853,0-3.286-1.756-5.539-11.2-9.435-13.576-5.727-20.175-9.716-20.175-20.372,0-11.969,10.681-20.09,26.726-20.09a62.733,62.733,0,0,1,18.229,2.957c.1,6.666-.712,9.952-3.085,13.1a36.3,36.3,0,0,0-15.334-3.708c-6.835,0-10.348,2.581-10.348,6.43,0,3.708,2.611,5.727,9.826,8.5C429.6,463.13,436.1,468.246,436.1,478.291c0,13.1-9.921,21.4-28.672,21.4A56.561,56.561,0,0,1,387.916,496.738Z" transform="translate(-217.853 -15.902)" fill="#dd3542"/>
    <path id="Trazado_632" data-name="Trazado 632" d="M628.409,489.3l-.095,45.577c-6.5,4.318-17.089,6.571-25.682,6.571-11.915,0-21.979-4.6-21.979-18.729v-30.98c4.463-1.924,9.542-2.44,15.524-2.44v31.026c0,5.445,3.608,8.214,9.921,8.214a29.283,29.283,0,0,0,6.646-.8v-36C617.111,489.821,622.523,489.3,628.409,489.3Z" transform="translate(-355.097 -58.036)" fill="#dd3542"/>
    <path id="Trazado_633" data-name="Trazado 633" d="M796.591,432.686v2.159h15.523c0,3.192-2.184,9.435-4.984,12.2H796.543v39.1H780.926V447h-7.88c0-4.506,3.75-11.172,7.88-13.19v-2.676c0-11.265,6.124-18.447,20.507-18.447A88.408,88.408,0,0,1,815.911,414c0,6.055-1.139,9.623-3.417,12.2a61.687,61.687,0,0,0-8.593-.8C798.537,425.41,796.591,428.79,796.591,432.686Z" transform="translate(-492.09 -3.482)" fill="#dd3542"/>
    <path id="Trazado_634" data-name="Trazado 634" d="M941.861,415.685a8.024,8.024,0,0,1,16.045,0,8.093,8.093,0,0,1-8.07,7.886A7.918,7.918,0,0,1,941.861,415.685Zm.19,16.194a20.142,20.142,0,0,1,7.879-1.455,19.651,19.651,0,0,1,7.786,1.455v50.787H942.051Z" transform="translate(-612.296 0)" fill="#dd3542"/>
  </g>
</svg>
